# xmcd
#
# Track frame offsets:
#	150
#	12380
#	38897
#	61945
#	85282
#	112537
#	139935
#	167525
#	190957
#
# Disc length: 2903 seconds
#
# Revision: 2
# Processed by: cddbd v1.5.2PL0 Copyright (c) Steve Scherf et al.
# Submitted via: EZCDAudioConverter 9.0.5.1
#
DISCID=6c0b5509
DTITLE=沢田研二 - CO-CoLO1 ～ 夜のみだらな鳥達 (CA32-1261) DE-Magnetic (EZ 9.0-WAV)
DYEAR=1986
DGENRE=East Asia
TTITLE0="B"サイドガール
TTITLE1=夜のみだらな鳥達
TTITLE2=無宿
TTITLE3=ドシャ降り、抜けて…
TTITLE4=あの女
TTITLE5=幻影 (イリュージョン)
TTITLE6=流されて
TTITLE7=時の街角
TTITLE8=闇舞踏
EXTD=
EXTT0=
EXTT1=
EXTT2=
EXTT3=
EXTT4=
EXTT5=
EXTT6=
EXTT7=
EXTT8=
PLAYORDER=
